HIERARCHY
ROOT pelvis
{
  OFFSET 0 100 0
  CHANNELS 6 Xposition Yposition Zposition Zrotation Xrotation Yrotation
  JOINT pelvis_right_femur
  {
    OFFSET -10.78128 -3.44521 -0.5502486
    CHANNELS 3 Zrotation Xrotation Yrotation
    JOINT right_femur_tibia
    {
      OFFSET -0.8047443 -44.0398 -0.1307829
      CHANNELS 3 Zrotation Xrotation Yrotation
      JOINT right_tibia_foot
      {
        OFFSET 3.006224 -47.83518 -5
        CHANNELS 3 Zrotation Xrotation Yrotation
        End Site
        {
          OFFSET 0 -5 15
        }
      }
    }
  }
  JOINT pelvis_left_femur
  {
    OFFSET 10.78128 -3.44521 -0.5502486
    CHANNELS 3 Zrotation Xrotation Yrotation
    JOINT left_femur_tibia
    {
      OFFSET 0.8047443 -44.0398 -0.1307829
      CHANNELS 3 Zrotation Xrotation Yrotation
      JOINT left_tibia_foot
      {
        OFFSET -4.370144 -48.10324 -4.275266
        CHANNELS 3 Zrotation Xrotation Yrotation
        End Site
        {
          OFFSET 0 -5 15
        }
      }
    }
  }
  JOINT pelvis_spine1
  {
    OFFSET 0 6.468898 -3.129235
    CHANNELS 3 Zrotation Xrotation Yrotation
    JOINT spine1
    {
      OFFSET 0 23.15396 4.99043
      CHANNELS 3 Zrotation Xrotation Yrotation
      JOINT spine2
      {
        OFFSET 0 20.79997 -5.064912
        CHANNELS 3 Zrotation Xrotation Yrotation
        JOINT neck
        {
          OFFSET 0 14.38658 9.616178
          CHANNELS 3 Zrotation Xrotation Yrotation
          End Site
          {
            OFFSET 0 20 0
          }
        }
      }
      JOINT right_manubrium
      {
        OFFSET -5.722621 16.35077 3.967754
        CHANNELS 3 Zrotation Xrotation Yrotation
        JOINT right_clavicle
        {
          OFFSET -13.16364 1.694482 -4.693211
          CHANNELS 3 Zrotation Xrotation Yrotation
          JOINT right_humerus
          {
            OFFSET -28.5034 -0.3100689 -2.792744
            CHANNELS 3 Zrotation Xrotation Yrotation
            JOINT right_radius
            {
              OFFSET -25.15693 0.02248979 -1.271978
              CHANNELS 3 Zrotation Xrotation Yrotation
              End Site
              {
                OFFSET -15 0 0
              }
            }
          }
        }
      }
      JOINT left_manubrium
      {
        OFFSET 5.722621 16.35077 3.967754
        CHANNELS 3 Zrotation Xrotation Yrotation
        JOINT left_clavicle
        {
          OFFSET 13.16364 1.694482 -4.693211
          CHANNELS 3 Zrotation Xrotation Yrotation
          JOINT left_humerus
          {
            OFFSET 29.39168 -1.063119 -2.237045
            CHANNELS 3 Zrotation Xrotation Yrotation
            JOINT left_radius
            {
              OFFSET 24.59957 -0.9528479 0.9047498
              CHANNELS 3 Zrotation Xrotation Yrotation
              End Site
              {
                OFFSET 15 -0 -0
              }
            }
          }
        }
      }
    }
  }
}
MOTION
Frames: 21
Frame Time: 0.0416666666667
0 103.5113 0 2.322159 -2.97742 0.1599701 0.6848292 -10.75028 7.492358 -0 37.38716 -0 -6.31093 -16.7733 -5.427681 -7.26786 13.36646 -24.0233 -0 5.324251 -0 0.1746603 -20.50325 23.42346 -4.9266 -3.583078 3.53444 1.886269 7.382219 -7.394264 1.249101 24.5565 6.84405 3.076522 -21.64731 8.53292 5.85922 -18.09756 10.59003 87.40936 35.79748 -21.60241 -0 0 13.71038 -8.706546 8.210356 5.196627 3.577395 -18.37391 -3.026791 -98.15682 41.42783 25.60009 0 0 -20.26757 -11.31082 17.23464 27.76758
0.01827698 102.8491 1.424642 1.721896 -2.306048 0.1966062 1.611105 -13.50409 7.473865 -0 37.32568 -0 -6.115854 -15.56577 -5.266223 -6.822188 13.85991 -24.07757 -0 5.085444 -0 -0.0708726 -21.26167 23.00392 -4.476738 -3.134494 3.200778 1.947467 7.194851 -7.438339 1.329448 24.19442 7.056322 3.205926 -22.29819 8.845954 6.029382 -17.86478 10.62062 87.08523 36.0433 -21.31144 -0 0 13.8561 -8.682434 8.669408 5.273408 3.906727 -18.26185 -2.771875 -97.99349 41.15405 25.22517 0 0 -20.05551 -10.69997 17.45289 27.05203
0.1854066 102.2664 3.646674 -0.167884 -0.1378777 0.4142299 4.237579 -21.88965 6.733901 -0 36.07096 -0 -6.205886 -10.36725 -3.248704 -5.755737 13.08935 -22.8138 -0 5.259935 -0 1.935271 -20.92753 22.02901 -2.880914 -1.864743 2.7508 2.239354 7.821346 -7.477801 1.285062 22.46012 7.970836 3.930286 -24.41108 9.68463 6.322371 -17.97196 11.17772 85.88847 36.31709 -19.48094 -0 0 14.5006 -9.546583 9.786453 5.905218 5.53821 -18.91095 -2.130431 -94.71607 33.50223 22.18473 0 0 -18.58339 -1.029259 17.77466 15.621
0.4196756 101.5758 6.41182 -0.7851814 0.5775308 0.7795547 4.986902 -25.16152 5.712367 -0 33.51127 -0 -6.665554 -7.444254 -2.173218 -5.411882 12.63337 -21.43294 -0 6.602078 -0 2.536116 -20.56681 21.06777 -2.328095 -1.369413 2.657109 2.384927 8.28103 -7.552072 1.188151 21.76346 8.322201 4.292214 -25.05572 9.78613 6.12072 -17.99134 11.42843 85.91868 36.05027 -19.14397 -0 0 14.10591 -10.46936 10.14992 6.314056 6.270595 -19.71376 -2.073004 -92.86543 29.46729 20.39344 0 0 -19.00259 3.509724 17.11121 10.17833
0.7472048 100.7453 9.846646 -1.105896 1.277425 1.198306 5.414556 -28.43852 4.220159 -0 28.7737 -0 -7.143176 -4.577755 -0.8049605 -5.379158 12.08493 -19.42685 -0 8.667144 -0 4.194594 -19.81703 20.36207 -2.038797 -1.078584 2.862506 2.608081 9.032122 -7.702981 1.035512 20.9855 8.590349 4.598587 -25.59175 9.770789 5.619608 -18.11662 11.71782 86.37535 35.56938 -19.18664 -0 0 13.2482 -11.50812 10.33157 6.60909 7.232871 -21.06776 -2.031263 -90.37187 23.62381 17.78166 0 0 -20.52459 9.859883 15.40373 2.34888
1.158394 99.74389 13.84592 -1.026559 1.281303 1.629759 5.0477 -29.57548 2.301833 -0 24.86949 -0 -7.863105 -1.724394 0.4472617 -5.504198 11.51844 -17.44824 -0 10.48313 -0 5.256031 -19.16047 19.68402 -2.011539 -1.020189 3.066946 2.633076 9.808265 -7.759372 0.8530018 20.61258 8.72178 4.854379 -25.60716 9.48256 4.95491 -18.2735 11.93075 87.10697 34.68528 -19.41149 -0 0 12.23116 -13.02081 10.33492 7.00685 7.919827 -22.40343 -2.331096 -88.62736 18.97915 15.81461 0 0 -22.05263 14.22789 13.75299 -3.338238
1.652236 98.58478 18.39947 -0.6877519 1.02994 2.069122 4.392554 -29.96414 0.163095 -0 20.74312 -0 -8.586076 0.9799651 1.683149 -5.780278 11.07074 -15.33038 -0 12.28644 -0 6.52535 -18.51653 19.21442 -2.164861 -1.163673 3.357636 2.591455 10.65724 -7.820508 0.6498394 20.37909 8.73958 5.043717 -25.36952 9.048262 4.1317 -18.46476 12.10152 88.05684 33.54586 -19.86025 -0 0 11.066 -14.64833 10.19722 7.308971 8.59317 -23.89467 -2.752433 -87.07395 14.33397 13.82409 0 0 -23.93862 18.26494 11.82367 -8.878889
2.216625 97.30309 23.40455 -0.2437183 0.3635995 2.507168 3.586345 -29.32057 -1.965275 -0 17.7812 -0 -9.403286 3.440302 2.760851 -6.005519 10.71065 -13.40399 -0 13.82258 -0 7.390506 -17.93585 18.81653 -2.323118 -1.390525 3.543161 2.40457 11.45198 -7.80272 0.463614 20.41551 8.674741 5.203562 -24.79045 8.507452 3.313948 -18.61923 12.22109 88.97047 32.18453 -20.25019 -0 0 9.98398 -16.45778 10.04638 7.593176 9.088966 -25.23674 -3.373678 -86.02769 10.66585 12.21416 0 0 -25.36872 21.14483 10.41509 -13.13453
2.833833 95.96502 28.79463 0.231949 -0.5320372 2.932916 2.887775 -28.16679 -3.888939 -0 15.60583 -0 -10.21115 5.520149 3.632141 -6.168325 10.49264 -11.6276 -0 15.40645 -0 8.060106 -17.35076 18.5248 -2.44177 -1.68735 3.659329 2.137601 12.18316 -7.761447 0.3019122 20.61926 8.525686 5.32097 -23.98494 7.908551 2.517561 -18.72672 12.29483 89.84608 30.70069 -20.64462 -0 0 8.999452 -18.22582 9.888849 7.759748 9.462241 -26.46351 -4.096556 -85.30784 7.698388 10.8144 0 0 -26.44736 23.33715 9.412289 -16.61726
3.476777 94.64958 34.46932 0.6340133 -1.676876 3.317426 2.410889 -26.54995 -5.464197 -0 14.62704 -0 -11.03628 7.102727 4.228158 -6.167693 10.33391 -10.13824 -0 17.24799 -0 8.351267 -16.6735 18.28702 -2.425034 -1.96566 3.643131 1.785562 12.80339 -7.665713 0.1926769 21.01057 8.31622 5.41864 -22.95401 7.304373 1.838302 -18.73878 12.33512 90.56316 29.19873 -20.90882 -0 0 8.198547 -19.92778 9.826855 7.831143 9.658386 -27.44134 -4.916698 -84.95228 5.668548 9.735494 0 0 -26.77555 24.80145 9.114181 -19.15375
4.109204 93.4516 40.34292 0.9160362 -2.985014 3.617138 2.251806 -24.66573 -6.595586 -0 14.57258 -0 -11.85123 8.129916 4.499791 -5.989694 10.17772 -8.918589 -0 19.76633 -0 8.317894 -15.80858 18.09432 -2.24864 -2.203423 3.530882 1.391984 13.31931 -7.545512 0.1454115 21.5259 8.043361 5.489068 -21.78509 6.724198 1.280514 -18.6609 12.35194 91.149 27.74942 -21.08465 -0 0 7.58765 -21.44261 9.874448 7.778379 9.679386 -28.17312 -5.78044 -84.89079 4.453074 8.973634 0 0 -26.36619 25.70565 9.431486 -20.89095
4.687748 92.46462 46.31968 1.041531 -4.43744 3.772931 2.429209 -22.50779 -7.229637 -0 15.29314 -0 -12.66406 8.551412 4.413912 -5.606099 9.875228 -8.002109 -0 23.33182 -0 7.930348 -14.66299 17.93448 -1.895202 -2.353816 3.347665 0.9767996 13.73563 -7.39244 0.180421 22.13531 7.70922 5.533228 -20.53238 6.201362 0.8645473 -18.4957 12.36016 91.59078 26.42517 -21.13401 -0 0 7.193944 -22.72938 10.08371 7.624391 9.505588 -28.61314 -6.657921 -85.11926 4.029088 8.603062 0 0 -25.1013 26.0911 10.37382 -21.82012
5.167054 91.77331 52.31013 1.010792 -5.9703 3.719497 2.931532 -20.04431 -7.333104 -0 16.32427 -0 -13.45559 8.363486 3.950081 -5.032488 9.252024 -7.357098 -0 28.2668 -0 7.2323 -13.18261 17.80915 -1.38984 -2.403625 3.171808 0.5755444 14.08333 -7.217489 0.3108055 22.76742 7.296672 5.528245 -19.30243 5.755094 0.5537431 -18.30056 12.37189 91.9403 25.24795 -21.0789 -0 0 7.043021 -23.71632 10.45424 7.393634 9.129975 -28.76391 -7.500786 -85.6114 4.280159 8.706561 0 0 -23.07232 25.96336 11.80272 -21.92431
5.509756 91.43011 58.22736 0.852211 -7.51455 3.398894 3.683125 -17.12813 -6.91099 -0 17.15711 -0 -14.17788 7.575141 3.118511 -4.302716 8.062468 -6.950502 -0 34.60226 -0 6.269836 -11.37843 17.72776 -0.7905684 -2.340458 3.100414 0.2128698 14.39188 -7.009538 0.5503925 23.34485 6.786133 5.44313 -18.20546 5.404283 0.3029846 -18.16539 12.39951 92.22266 24.2265 -20.89036 -0 0 7.202398 -24.36894 10.98842 7.154368 8.551498 -28.61073 -8.253704 -86.35578 5.10152 9.409281 0 0 -20.41709 25.25123 13.57021 -21.10445
5.699753 91.43249 64.00084 0.6239367 -8.953523 2.783607 4.55096 -13.59135 -6.018022 -0 17.24517 -0 -14.72134 6.220474 1.974251 -3.478287 6.045991 -6.708449 -0 41.84387 -0 5.128857 -9.364382 17.69098 -0.1917564 -2.175177 3.250107 -0.08949489 14.68571 -6.755086 0.8971467 23.76388 6.158435 5.230592 -17.372 5.158963 0.04800084 -18.2331 12.45098 92.44521 23.34401 -20.5153 -0 0 7.791536 -24.67324 11.66302 7.015182 7.78935 -28.14882 -8.841482 -87.32012 6.353426 10.85319 0 0 -17.43784 23.83151 15.44207 -19.21402
5.755719 91.69811 69.59085 0.3993225 -10.14229 1.90042 5.339734 -9.311116 -4.800672 -0 16.30962 -0 -14.91459 4.335595 0.6534481 -2.622757 2.999185 -6.543354 -0 48.69156 -0 3.913025 -7.373616 17.67922 0.293955 -1.934546 3.701878 -0.3291629 14.95016 -6.42495 1.320326 23.9321 5.425387 4.852236 -16.88915 5.020461 -0.2423795 -18.65174 12.52479 92.523 22.60891 -19.82066 -0 0 8.974843 -24.69471 12.46231 7.133845 6.903203 -27.36626 -9.177665 -88.4534 7.874158 13.13291 0 0 -14.50492 21.61709 17.14695 -16.16836
5.734921 92.06217 75.00562 0.2310921 -10.93515 0.8368345 5.853146 -4.376489 -3.507088 -0 14.58207 -0 -14.58353 1.959724 -0.6148815 -1.772337 -1.051684 -6.372669 -0 53.1243 -0 2.729057 -5.716135 17.65488 0.5782793 -1.664232 4.429564 -0.5240251 15.10881 -5.991062 1.747042 23.81695 4.658995 4.310537 -16.74138 4.977551 -0.5304947 -19.49362 12.60133 92.26807 22.08539 -18.62173 -0 0 10.87613 -24.59874 13.37436 7.670431 6.008696 -26.2684 -9.188809 -89.67634 9.476197 16.16732 0 0 -11.95024 18.70952 18.42869 -12.14775
5.716973 92.31425 80.3011 0.1110234 -11.25609 -0.2890501 5.992435 0.8078056 -2.446933 -0 12.82442 -0 -13.68767 -0.824002 -1.555079 -0.9268358 -5.696064 -6.175441 -0 53.22742 -0 1.646785 -4.652308 17.61504 0.6465768 -1.407271 5.245407 -0.7046494 15.0264 -5.441648 2.082433 23.51136 4.00062 3.690606 -16.76279 5.015164 -0.6954651 -20.6341 12.64186 91.44806 21.89861 -16.76581 -0 0 13.41088 -24.62329 14.36572 8.686968 5.270324 -24.90312 -8.86 -90.90119 10.97948 19.5644 0 0 -9.834599 15.52712 19.1991 -7.779545
5.768087 92.27425 85.55645 -0.02395547 -11.15705 -1.382266 5.823544 5.614578 -1.865685 -0 11.82704 -0 -12.43869 -3.779214 -1.98107 -0.1059171 -10.18152 -6.026349 -0 48.62569 -0 0.6824429 -4.240479 17.64938 0.5656733 -1.178682 5.870551 -0.8870765 14.58913 -4.802213 2.266614 23.22124 3.602348 3.151405 -16.71298 5.125377 -0.6167053 -21.73569 12.60292 89.97944 22.13174 -14.29535 -0 0 16.15949 -24.93518 15.30674 10.04215 4.840791 -23.38872 -8.268442 -92.05898 12.25484 22.66452 0 0 -7.869871 12.68589 19.61705 -3.983429
5.909664 91.86231 90.84263 -0.2167207 -10.81057 -2.402489 5.504384 9.528886 -1.808689 -0 11.82133 -0 -11.22766 -6.468888 -1.918735 0.5849793 -13.77574 -6.061362 -0 41.11718 -0 -0.1732011 -4.309499 17.90136 0.4239313 -0.9632559 6.124556 -1.060803 13.8152 -4.128635 2.318936 23.1412 3.52767 2.842266 -16.44098 5.300263 -0.2944269 -22.43333 12.45838 88.08138 22.70069 -11.52318 -0 0 18.50919 -25.49002 15.96436 11.41936 4.775712 -21.89235 -7.560717 -93.11768 13.24811 24.8692 0 0 -5.66589 10.65138 19.9325 -1.450605
6.118401 91.1123 96.20996 -0.4373207 -10.41867 -3.352861 5.144598 12.41379 -2.107479 -0 12.51507 -0 -10.37685 -8.422477 -1.565048 1.00105 -16.15857 -6.366736 -0 33.43218 -0 -0.9150679 -4.60151 18.42701 0.2694705 -0.7485378 6.04298 -1.208992 12.87302 -3.478876 2.310637 23.32266 3.710512 2.80679 -15.97573 5.5125 0.1348075 -22.58587 12.21487 86.18496 23.3697 -8.89793 -0 0 20.03166 -26.0768 16.13701 12.51658 5.000233 -20.56307 -6.880479 -94.06566 13.96775 26.00283 0 0 -3.120591 9.502964 20.23498 -0.2479928
